<svg width="25" height="26" viewBox="0 0 25 26" fill="none" xmlns="http://www.w3.org/2000/svg">
<path d="M12.8012 0.994141C6.11814 0.994141 0.700195 6.41194 0.700195 13.095C0.700195 19.7783 6.11814 25.1957 12.8012 25.1957C19.485 25.1957 24.9023 19.7783 24.9023 13.095C24.9023 6.41237 19.485 0.994719 12.8011 0.994719L12.8012 0.994141V0.994141ZM18.3506 18.447C18.1339 18.8025 17.6686 18.9152 17.3131 18.697C14.4719 16.9616 10.8952 16.5685 6.683 17.5309C6.27709 17.6234 5.87249 17.3691 5.78001 16.963C5.68709 16.557 5.9404 16.1524 6.34732 16.0599C10.9569 15.0063 14.9109 15.4602 18.1007 17.4095C18.4561 17.6277 18.5688 18.0916 18.3506 18.447V18.447ZM19.8318 15.1517C19.5587 15.596 18.9778 15.7362 18.5342 15.4631C15.2814 13.4633 10.3231 12.8843 6.47578 14.0522C5.97682 14.2029 5.44982 13.9217 5.29838 13.4236C5.1481 12.9246 5.42945 12.3986 5.92754 12.2469C10.3223 10.9135 15.7857 11.5594 19.5211 13.8548C19.9647 14.1279 20.1049 14.7088 19.8318 15.1518V15.1517ZM19.9589 11.7206C16.0588 9.40414 9.62418 9.19114 5.90052 10.3213C5.30257 10.5026 4.67023 10.1651 4.48903 9.56713C4.30782 8.9689 4.64509 8.33699 5.24347 8.15521C9.51798 6.85758 16.6238 7.10829 21.1141 9.77391C21.6531 10.0931 21.8294 10.7877 21.51 11.3249C21.1921 11.8627 20.4956 12.04 19.9595 11.7206H19.9589Z" fill="#FCFCFC"/>
</svg>
