<svg width="28" height="20" viewBox="0 0 28 20" fill="none" xmlns="http://www.w3.org/2000/svg">
<path d="M27.6435 4.24962C27.6435 4.24962 27.3805 2.39256 26.5703 1.57714C25.5444 0.503939 24.3976 0.498678 23.8715 0.435548C20.1048 0.161987 14.4494 0.161987 14.4494 0.161987H14.4389C14.4389 0.161987 8.78357 0.161987 5.01685 0.435548C4.49077 0.498678 3.34392 0.503939 2.31806 1.57714C1.5079 2.39256 1.25012 4.24962 1.25012 4.24962C1.25012 4.24962 0.976562 6.43285 0.976562 8.61081V10.652C0.976562 12.83 1.24486 15.0132 1.24486 15.0132C1.24486 15.0132 1.5079 16.8702 2.3128 17.6857C3.33866 18.7589 4.68542 18.722 5.28515 18.8378C7.44207 19.043 14.4442 19.1061 14.4442 19.1061C14.4442 19.1061 20.1048 19.0956 23.8715 18.8273C24.3976 18.7641 25.5444 18.7589 26.5703 17.6857C27.3805 16.8702 27.6435 15.0132 27.6435 15.0132C27.6435 15.0132 27.9118 12.8352 27.9118 10.652V8.61081C27.9118 6.43285 27.6435 4.24962 27.6435 4.24962ZM11.6612 13.1298V5.55955L18.9369 9.35784L11.6612 13.1298Z" fill="#FCFCFC"/>
</svg>
